<svg width="408" height="185" viewBox="0 0 408 185" fill="none" xmlns="http://www.w3.org/2000/svg">
<circle cx="204.49" cy="57.375" r="57.375" fill="#0066FF"/>
<path d="M209.203 15.168L210.638 14.3948L209.79 12.8219L208.302 13.81L209.203 15.168ZM224.835 51.9131C221.965 55.7614 222.757 61.2082 226.606 64.0788C230.454 66.9494 235.901 66.1567 238.771 62.3084C241.642 58.4601 240.849 53.0133 237.001 50.1427C233.153 47.2721 227.706 48.0647 224.835 51.9131ZM187.531 44.2221L185.903 44.3154L185.903 44.3154L187.531 44.2221ZM222.153 70.0481L223.779 69.9357L222.153 70.0481ZM199.959 99.8021L198.51 100.549L199.341 102.162L200.856 101.163L199.959 99.8021ZM170.978 51.8739C168.107 55.7222 168.9 61.169 172.748 64.0396C176.597 66.9102 182.043 66.1176 184.914 62.2692C187.784 58.4209 186.992 52.9741 183.144 50.1035C179.295 47.2329 173.848 48.0256 170.978 51.8739ZM207.768 15.9412L230.369 57.8839L233.238 56.3376L210.638 14.3948L207.768 15.9412ZM209.203 15.168C208.302 13.81 208.301 13.8102 208.301 13.8105C208.301 13.8107 208.3 13.8111 208.299 13.8115C208.298 13.8122 208.297 13.8131 208.295 13.8143C208.292 13.8167 208.287 13.8199 208.281 13.8241C208.268 13.8324 208.25 13.8443 208.227 13.8598C208.181 13.8907 208.115 13.9359 208.029 13.9947C207.858 14.1122 207.609 14.2847 207.295 14.5081C206.666 14.9547 205.773 15.6059 204.706 16.4309C202.575 18.0786 199.734 20.4306 196.913 23.2407C194.097 26.0446 191.26 29.3447 189.171 32.8935C187.087 36.4317 185.675 40.3401 185.903 44.3154L189.158 44.1288C188.981 41.0381 190.075 37.7818 191.98 34.5475C193.878 31.3237 196.509 28.2436 199.213 25.5504C201.911 22.8635 204.641 20.6017 206.7 19.0099C207.728 18.2151 208.585 17.5901 209.183 17.1656C209.481 16.9533 209.715 16.7914 209.872 16.6835C209.951 16.6295 210.011 16.5891 210.05 16.5627C210.069 16.5495 210.084 16.5398 210.093 16.5337C210.098 16.5306 210.101 16.5285 210.103 16.5272C210.104 16.5266 210.104 16.5261 210.105 16.526C210.105 16.5259 210.105 16.5259 210.105 16.5258C210.105 16.5259 210.104 16.5261 209.203 15.168ZM185.903 44.3154C186.183 49.1969 188.81 52.2989 192.353 54.3979C195.785 56.4309 200.213 57.6068 204.346 58.7142C208.602 59.8547 212.567 60.9272 215.563 62.6871C218.451 64.3837 220.282 66.6224 220.527 70.1605L223.779 69.9357C223.442 65.0598 220.775 61.9683 217.214 59.8762C213.76 57.8474 209.323 56.6728 205.19 55.5654C200.933 54.4249 196.984 53.3521 194.015 51.5932C191.158 49.9005 189.361 47.6676 189.158 44.1288L185.903 44.3154ZM220.527 70.1605C220.746 73.3263 219.644 76.661 217.701 79.9735C215.764 83.2757 213.063 86.4316 210.283 89.1913C207.508 91.9447 204.696 94.2628 202.574 95.8945C201.514 96.7091 200.63 97.3499 200.013 97.7852C199.705 98.0028 199.464 98.1689 199.301 98.2796C199.22 98.335 199.158 98.3764 199.118 98.4036C199.098 98.4171 199.083 98.4271 199.073 98.4334C199.069 98.4365 199.065 98.4388 199.063 98.4401C199.062 98.4408 199.062 98.4412 199.061 98.4414C199.061 98.4415 199.061 98.4415 199.061 98.4415C199.061 98.4414 199.061 98.4413 199.959 99.8021C200.856 101.163 200.856 101.163 200.857 101.162C200.857 101.162 200.858 101.162 200.858 101.161C200.859 101.161 200.861 101.16 200.862 101.158C200.866 101.156 200.871 101.153 200.877 101.149C200.89 101.14 200.909 101.128 200.932 101.112C200.979 101.08 201.048 101.034 201.136 100.974C201.313 100.854 201.569 100.677 201.893 100.448C202.541 99.9908 203.461 99.3239 204.56 98.4789C206.756 96.7914 209.68 94.3826 212.579 91.5051C215.472 88.6341 218.382 85.2553 220.513 81.6229C222.638 78.0007 224.06 74.0007 223.779 69.9357L220.527 70.1605ZM201.408 99.0556L179.395 56.3251L176.497 57.818L198.51 100.549L201.408 99.0556Z" fill="white"/>
<path d="M12.5058 160.198C10.388 160.198 8.51144 159.822 6.87617 159.072C5.2409 158.321 3.95413 157.222 3.01587 155.774C2.1044 154.3 1.64867 152.517 1.64867 150.426V149.421H5.95131V150.426C5.95131 152.41 6.54108 153.898 7.72062 154.89C8.92696 155.882 10.522 156.378 12.5058 156.378C14.5164 156.378 16.031 155.962 17.0497 155.131C18.0684 154.273 18.5777 153.174 18.5777 151.834C18.5777 150.949 18.3365 150.225 17.8539 149.662C17.3714 149.099 16.6878 148.657 15.8031 148.335C14.9185 147.987 13.8596 147.665 12.6264 147.37L11.1386 147.008C9.34248 146.579 7.77423 146.057 6.43385 145.44C5.12027 144.797 4.10158 143.952 3.37777 142.907C2.65396 141.861 2.29206 140.521 2.29206 138.885C2.29206 137.223 2.69417 135.803 3.4984 134.623C4.32944 133.444 5.46877 132.532 6.91638 131.889C8.364 131.245 10.0663 130.924 12.0233 130.924C13.9802 130.924 15.7227 131.259 17.2507 131.929C18.8056 132.599 20.0253 133.591 20.91 134.905C21.7947 136.218 22.237 137.867 22.237 139.851V141.298H17.9343V139.851C17.9343 138.644 17.6797 137.666 17.1703 136.915C16.6878 136.165 16.0042 135.615 15.1195 135.266C14.2349 134.918 13.2028 134.744 12.0233 134.744C10.3076 134.744 8.96717 135.106 8.0021 135.829C7.06383 136.526 6.59469 137.505 6.59469 138.765C6.59469 139.623 6.79575 140.333 7.19787 140.896C7.62679 141.432 8.24337 141.875 9.0476 142.223C9.85183 142.572 10.8571 142.88 12.0635 143.148L13.5513 143.51C15.3742 143.912 16.9827 144.435 18.3767 145.078C19.7707 145.695 20.8698 146.539 21.674 147.611C22.4782 148.684 22.8804 150.064 22.8804 151.753C22.8804 153.442 22.4514 154.916 21.5936 156.176C20.7626 157.436 19.5696 158.428 18.0148 159.152C16.4599 159.849 14.6236 160.198 12.5058 160.198ZM26.7557 159.635V139.81H30.8171V142.143H31.4605C31.8358 141.446 32.439 140.829 33.27 140.293C34.1011 139.757 35.227 139.489 36.6478 139.489C38.1222 139.489 39.3017 139.797 40.1864 140.414C41.0979 141.003 41.7815 141.767 42.2372 142.706H42.8806C43.3363 141.794 43.9931 141.03 44.8509 140.414C45.7356 139.797 46.9822 139.489 48.5906 139.489C49.8774 139.489 51.0167 139.757 52.0086 140.293C53.0005 140.802 53.7913 141.58 54.3811 142.625C54.9708 143.644 55.2657 144.917 55.2657 146.445V159.635H51.1239V146.767C51.1239 145.561 50.7888 144.636 50.1187 143.992C49.4753 143.322 48.5504 142.987 47.3441 142.987C46.0573 142.987 45.0252 143.403 44.2478 144.234C43.4703 145.065 43.0816 146.258 43.0816 147.812V159.635H38.9398V146.767C38.9398 145.561 38.6047 144.636 37.9346 143.992C37.2912 143.322 36.3663 142.987 35.16 142.987C33.8732 142.987 32.8411 143.403 32.0637 144.234C31.2862 145.065 30.8975 146.258 30.8975 147.812V159.635H26.7557ZM66.5821 160.198C65.1613 160.198 63.888 159.956 62.762 159.474C61.6629 158.991 60.7783 158.281 60.1081 157.343C59.4647 156.404 59.143 155.265 59.143 153.925C59.143 152.557 59.4647 151.431 60.1081 150.547C60.7783 149.635 61.6763 148.952 62.8023 148.496C63.955 148.04 65.2552 147.812 66.7028 147.812H72.7345V146.526C72.7345 145.373 72.386 144.448 71.689 143.751C70.992 143.054 69.9197 142.706 68.4721 142.706C67.0513 142.706 65.9656 143.041 65.2149 143.711C64.4643 144.381 63.9684 145.252 63.7271 146.325L59.8668 145.078C60.1885 144.006 60.6978 143.041 61.3948 142.183C62.1187 141.298 63.0703 140.588 64.2499 140.052C65.4294 139.515 66.8502 139.247 68.5123 139.247C71.0858 139.247 73.1098 139.904 74.5842 141.218C76.0587 142.531 76.7959 144.394 76.7959 146.807V154.97C76.7959 155.774 77.1712 156.176 77.9218 156.176H79.6107V159.635H76.5144C75.5761 159.635 74.8121 159.393 74.2223 158.911C73.6326 158.428 73.3377 157.772 73.3377 156.94V156.82H72.7345C72.52 157.222 72.1983 157.691 71.7694 158.227C71.3405 158.763 70.7105 159.233 69.8795 159.635C69.0484 160.01 67.9493 160.198 66.5821 160.198ZM67.1853 156.78C68.8474 156.78 70.1878 156.31 71.2065 155.372C72.2252 154.407 72.7345 153.094 72.7345 151.431V151.029H66.944C65.8449 151.029 64.9603 151.271 64.2901 151.753C63.6199 152.209 63.2848 152.893 63.2848 153.804C63.2848 154.715 63.6333 155.439 64.3303 155.975C65.0273 156.512 65.979 156.78 67.1853 156.78ZM82.8336 159.635V139.81H86.8949V142.143H87.5383C87.86 141.312 88.3694 140.708 89.0664 140.333C89.7902 139.931 90.6748 139.73 91.7203 139.73H94.0928V143.47H91.5595C90.2191 143.47 89.12 143.845 88.2621 144.596C87.4043 145.319 86.9754 146.445 86.9754 147.973V159.635H82.8336ZM105.019 159.635C103.813 159.635 102.848 159.273 102.124 158.549C101.427 157.825 101.078 156.86 101.078 155.654V143.309H95.6095V139.81H101.078V133.256H105.22V139.81H111.131V143.309H105.22V154.93C105.22 155.734 105.595 156.136 106.346 156.136H110.488V159.635H105.019ZM129.757 159.635L121.916 131.487H126.419L133.255 156.9H133.778L140.574 131.487H145.078L137.277 159.635H129.757ZM148.22 159.635V139.81H152.362V159.635H148.22ZM150.311 137.116C149.506 137.116 148.823 136.862 148.26 136.352C147.724 135.816 147.456 135.132 147.456 134.301C147.456 133.47 147.724 132.8 148.26 132.291C148.823 131.755 149.506 131.487 150.311 131.487C151.142 131.487 151.825 131.755 152.362 132.291C152.898 132.8 153.166 133.47 153.166 134.301C153.166 135.132 152.898 135.816 152.362 136.352C151.825 136.862 151.142 137.116 150.311 137.116ZM165.827 160.198C163.307 160.198 161.216 159.635 159.554 158.509C157.892 157.383 156.873 155.681 156.498 153.402L160.358 152.477C160.572 153.576 160.934 154.447 161.444 155.091C161.953 155.734 162.583 156.19 163.334 156.458C164.111 156.726 164.942 156.86 165.827 156.86C167.14 156.86 168.146 156.605 168.843 156.096C169.566 155.587 169.928 154.93 169.928 154.126C169.928 153.321 169.593 152.732 168.923 152.356C168.253 151.981 167.261 151.673 165.947 151.431L164.58 151.19C163.24 150.949 162.02 150.6 160.921 150.145C159.822 149.689 158.951 149.059 158.307 148.255C157.664 147.451 157.342 146.418 157.342 145.158C157.342 143.282 158.039 141.834 159.433 140.816C160.827 139.77 162.677 139.247 164.982 139.247C167.207 139.247 169.03 139.757 170.451 140.775C171.899 141.767 172.837 143.121 173.266 144.837L169.406 145.923C169.164 144.716 168.655 143.872 167.878 143.389C167.1 142.88 166.135 142.625 164.982 142.625C163.856 142.625 162.972 142.84 162.328 143.269C161.685 143.671 161.363 144.247 161.363 144.998C161.363 145.802 161.672 146.392 162.288 146.767C162.931 147.142 163.789 147.424 164.862 147.611L166.269 147.853C167.69 148.094 168.99 148.429 170.17 148.858C171.349 149.287 172.274 149.903 172.944 150.708C173.641 151.512 173.99 152.584 173.99 153.925C173.99 155.908 173.252 157.45 171.778 158.549C170.304 159.648 168.32 160.198 165.827 160.198ZM178.027 159.635V139.81H182.168V159.635H178.027ZM180.118 137.116C179.313 137.116 178.63 136.862 178.067 136.352C177.531 135.816 177.263 135.132 177.263 134.301C177.263 133.47 177.531 132.8 178.067 132.291C178.63 131.755 179.313 131.487 180.118 131.487C180.949 131.487 181.632 131.755 182.168 132.291C182.704 132.8 182.973 133.47 182.973 134.301C182.973 135.132 182.704 135.816 182.168 136.352C181.632 136.862 180.949 137.116 180.118 137.116ZM196.8 160.198C194.816 160.198 193.047 159.795 191.492 158.991C189.964 158.16 188.757 156.981 187.873 155.453C186.988 153.925 186.546 152.115 186.546 150.024V149.421C186.546 147.33 186.988 145.534 187.873 144.033C188.757 142.505 189.964 141.325 191.492 140.494C193.047 139.663 194.816 139.247 196.8 139.247C198.783 139.247 200.553 139.663 202.108 140.494C203.662 141.325 204.882 142.505 205.767 144.033C206.651 145.534 207.094 147.33 207.094 149.421V150.024C207.094 152.115 206.651 153.925 205.767 155.453C204.882 156.981 203.662 158.16 202.108 158.991C200.553 159.795 198.783 160.198 196.8 160.198ZM196.8 156.498C198.623 156.498 200.097 155.922 201.223 154.769C202.376 153.59 202.952 151.968 202.952 149.903V149.542C202.952 147.477 202.389 145.869 201.263 144.716C200.137 143.537 198.649 142.947 196.8 142.947C195.004 142.947 193.529 143.537 192.376 144.716C191.25 145.869 190.688 147.477 190.688 149.542V149.903C190.688 151.968 191.25 153.59 192.376 154.769C193.529 155.922 195.004 156.498 196.8 156.498ZM211.446 159.635V139.81H215.507V142.786H216.151C216.526 141.982 217.196 141.231 218.161 140.534C219.126 139.837 220.561 139.489 222.464 139.489C223.965 139.489 225.292 139.824 226.445 140.494C227.625 141.164 228.549 142.116 229.22 143.349C229.89 144.555 230.225 146.016 230.225 147.732V159.635H226.083V148.054C226.083 146.338 225.654 145.078 224.796 144.274C223.938 143.443 222.759 143.027 221.258 143.027C219.542 143.027 218.161 143.59 217.116 144.716C216.097 145.842 215.588 147.477 215.588 149.622V159.635H211.446ZM250.282 159.635V135.427H241.637V131.487H263.271V135.427H254.625V159.635H250.282ZM271.723 160.198C269.713 160.198 267.957 159.782 266.456 158.951C264.955 158.093 263.775 156.9 262.917 155.372C262.086 153.817 261.671 152.021 261.671 149.984V149.501C261.671 147.437 262.086 145.641 262.917 144.113C263.748 142.558 264.901 141.365 266.375 140.534C267.877 139.676 269.606 139.247 271.563 139.247C273.466 139.247 275.128 139.676 276.549 140.534C277.996 141.365 279.122 142.531 279.927 144.033C280.731 145.534 281.133 147.29 281.133 149.3V150.869H265.893C265.946 152.611 266.523 154.005 267.622 155.051C268.748 156.069 270.142 156.579 271.804 156.579C273.359 156.579 274.525 156.23 275.302 155.533C276.107 154.836 276.723 154.032 277.152 153.12L280.57 154.89C280.195 155.64 279.645 156.431 278.921 157.262C278.224 158.093 277.299 158.79 276.147 159.353C274.994 159.916 273.52 160.198 271.723 160.198ZM265.933 147.692H276.911C276.804 146.191 276.267 145.024 275.302 144.193C274.337 143.336 273.077 142.907 271.522 142.907C269.968 142.907 268.694 143.336 267.702 144.193C266.737 145.024 266.147 146.191 265.933 147.692ZM294.523 160.198C292.619 160.198 290.89 159.795 289.336 158.991C287.807 158.187 286.588 157.021 285.676 155.493C284.792 153.965 284.349 152.128 284.349 149.984V149.461C284.349 147.317 284.792 145.494 285.676 143.992C286.588 142.464 287.807 141.298 289.336 140.494C290.89 139.663 292.619 139.247 294.523 139.247C296.426 139.247 298.048 139.596 299.388 140.293C300.729 140.99 301.801 141.915 302.605 143.067C303.436 144.22 303.972 145.494 304.214 146.888L300.193 147.732C300.059 146.847 299.777 146.043 299.348 145.319C298.919 144.596 298.316 144.019 297.539 143.59C296.761 143.161 295.783 142.947 294.603 142.947C293.45 142.947 292.405 143.215 291.467 143.751C290.555 144.26 289.831 145.011 289.295 146.003C288.759 146.968 288.491 148.148 288.491 149.542V149.903C288.491 151.297 288.759 152.49 289.295 153.482C289.831 154.474 290.555 155.225 291.467 155.734C292.405 156.243 293.45 156.498 294.603 156.498C296.346 156.498 297.673 156.056 298.584 155.171C299.496 154.26 300.072 153.107 300.313 151.713L304.334 152.638C304.013 154.005 303.436 155.265 302.605 156.418C301.801 157.57 300.729 158.495 299.388 159.192C298.048 159.863 296.426 160.198 294.523 160.198ZM308.307 159.635V131.487H312.449V142.625H313.092C313.36 142.116 313.736 141.62 314.218 141.137C314.728 140.655 315.384 140.266 316.189 139.971C317.02 139.65 318.065 139.489 319.325 139.489C320.826 139.489 322.153 139.824 323.306 140.494C324.486 141.164 325.41 142.116 326.081 143.349C326.751 144.555 327.086 146.016 327.086 147.732V159.635H322.944V148.054C322.944 146.338 322.515 145.078 321.657 144.274C320.8 143.443 319.62 143.027 318.119 143.027C316.403 143.027 315.023 143.59 313.977 144.716C312.958 145.842 312.449 147.477 312.449 149.622V159.635H308.307ZM332.242 159.635V131.487H336.384V159.635H332.242ZM347.879 160.198C346.458 160.198 345.185 159.956 344.059 159.474C342.96 158.991 342.075 158.281 341.405 157.343C340.762 156.404 340.44 155.265 340.44 153.925C340.44 152.557 340.762 151.431 341.405 150.547C342.075 149.635 342.973 148.952 344.099 148.496C345.252 148.04 346.552 147.812 348 147.812H354.031V146.526C354.031 145.373 353.683 144.448 352.986 143.751C352.289 143.054 351.217 142.706 349.769 142.706C348.348 142.706 347.263 143.041 346.512 143.711C345.761 144.381 345.265 145.252 345.024 146.325L341.164 145.078C341.485 144.006 341.995 143.041 342.692 142.183C343.416 141.298 344.367 140.588 345.547 140.052C346.726 139.515 348.147 139.247 349.809 139.247C352.383 139.247 354.407 139.904 355.881 141.218C357.356 142.531 358.093 144.394 358.093 146.807V154.97C358.093 155.774 358.468 156.176 359.219 156.176H360.908V159.635H357.811C356.873 159.635 356.109 159.393 355.519 158.911C354.93 158.428 354.635 157.772 354.635 156.94V156.82H354.031C353.817 157.222 353.495 157.691 353.066 158.227C352.637 158.763 352.007 159.233 351.176 159.635C350.345 160.01 349.246 160.198 347.879 160.198ZM348.482 156.78C350.144 156.78 351.485 156.31 352.503 155.372C353.522 154.407 354.031 153.094 354.031 151.431V151.029H348.241C347.142 151.029 346.257 151.271 345.587 151.753C344.917 152.209 344.582 152.893 344.582 153.804C344.582 154.715 344.93 155.439 345.627 155.975C346.324 156.512 347.276 156.78 348.482 156.78ZM375.591 160.198C373.661 160.198 372.173 159.849 371.127 159.152C370.109 158.455 369.345 157.678 368.835 156.82H368.192V159.635H364.131V131.487H368.272V142.505H368.916C369.237 141.968 369.666 141.459 370.202 140.976C370.739 140.467 371.449 140.052 372.334 139.73C373.218 139.408 374.304 139.247 375.591 139.247C377.253 139.247 378.781 139.65 380.175 140.454C381.569 141.258 382.681 142.424 383.513 143.952C384.344 145.48 384.759 147.303 384.759 149.421V150.024C384.759 152.169 384.33 154.005 383.472 155.533C382.641 157.034 381.529 158.187 380.135 158.991C378.768 159.795 377.253 160.198 375.591 160.198ZM374.384 156.579C376.181 156.579 377.655 156.002 378.808 154.849C379.987 153.697 380.577 152.048 380.577 149.903V149.542C380.577 147.424 380.001 145.788 378.848 144.636C377.695 143.483 376.207 142.907 374.384 142.907C372.615 142.907 371.141 143.483 369.961 144.636C368.808 145.788 368.232 147.424 368.232 149.542V149.903C368.232 152.048 368.808 153.697 369.961 154.849C371.141 156.002 372.615 156.579 374.384 156.579ZM397.21 160.198C394.69 160.198 392.599 159.635 390.937 158.509C389.274 157.383 388.256 155.681 387.88 153.402L391.741 152.477C391.955 153.576 392.317 154.447 392.827 155.091C393.336 155.734 393.966 156.19 394.716 156.458C395.494 156.726 396.325 156.86 397.21 156.86C398.523 156.86 399.528 156.605 400.225 156.096C400.949 155.587 401.311 154.93 401.311 154.126C401.311 153.321 400.976 152.732 400.306 152.356C399.636 151.981 398.644 151.673 397.33 151.431L395.963 151.19C394.623 150.949 393.403 150.6 392.304 150.145C391.205 149.689 390.333 149.059 389.69 148.255C389.047 147.451 388.725 146.418 388.725 145.158C388.725 143.282 389.422 141.834 390.816 140.816C392.21 139.77 394.06 139.247 396.365 139.247C398.59 139.247 400.413 139.757 401.834 140.775C403.282 141.767 404.22 143.121 404.649 144.837L400.788 145.923C400.547 144.716 400.038 143.872 399.26 143.389C398.483 142.88 397.518 142.625 396.365 142.625C395.239 142.625 394.355 142.84 393.711 143.269C393.068 143.671 392.746 144.247 392.746 144.998C392.746 145.802 393.054 146.392 393.671 146.767C394.314 147.142 395.172 147.424 396.244 147.611L397.652 147.853C399.073 148.094 400.373 148.429 401.552 148.858C402.732 149.287 403.657 149.903 404.327 150.708C405.024 151.512 405.373 152.584 405.373 153.925C405.373 155.908 404.635 157.45 403.161 158.549C401.686 159.648 399.703 160.198 397.21 160.198Z" fill="black"/>
<path d="M60.1163 167.954L57.1446 178.208H55.644L53.2607 169.954L50.7892 178.208L49.3033 178.222L46.4346 167.954H47.8616L50.0977 176.648L52.5693 167.954H54.0698L56.4237 176.619L58.6746 167.954H60.1163ZM68.5252 169.998C69.1333 169.998 69.6825 170.131 70.1729 170.396C70.6633 170.651 71.0458 171.038 71.3204 171.558C71.6048 172.078 71.747 172.71 71.747 173.456V178.208H70.423V173.647C70.423 172.843 70.2219 172.23 69.8198 171.808C69.4177 171.376 68.8685 171.161 68.1721 171.161C67.466 171.161 66.902 171.381 66.4803 171.823C66.0684 172.264 65.8624 172.906 65.8624 173.75V178.208H64.5237V167.321H65.8624V171.293C66.1272 170.881 66.4901 170.562 66.9511 170.337C67.4218 170.111 67.9465 169.998 68.5252 169.998ZM84.2319 173.868C84.2319 174.123 84.2172 174.392 84.1878 174.677H77.7442C77.7932 175.471 78.0629 176.094 78.5533 176.545C79.0535 176.986 79.6567 177.207 80.3628 177.207C80.9415 177.207 81.422 177.075 81.8045 176.81C82.1968 176.535 82.4715 176.172 82.6284 175.721H84.0701C83.8543 176.496 83.4228 177.129 82.7755 177.619C82.1282 178.1 81.324 178.34 80.3628 178.34C79.5978 178.34 78.9113 178.168 78.3032 177.825C77.7049 177.482 77.2342 176.996 76.8909 176.369C76.5476 175.731 76.376 174.996 76.376 174.162C76.376 173.328 76.5427 172.598 76.8762 171.97C77.2096 171.342 77.6755 170.862 78.2738 170.528C78.8818 170.185 79.5782 170.013 80.3628 170.013C81.1278 170.013 81.8045 170.18 82.393 170.513C82.9815 170.847 83.4326 171.308 83.7465 171.896C84.0701 172.475 84.2319 173.132 84.2319 173.868ZM82.8491 173.588C82.8491 173.078 82.7363 172.642 82.5107 172.279C82.2851 171.906 81.9762 171.627 81.5839 171.44C81.2014 171.244 80.7747 171.146 80.304 171.146C79.6272 171.146 79.0486 171.362 78.568 171.793C78.0972 172.225 77.8275 172.823 77.7589 173.588H82.8491ZM90.2801 171.455C90.5155 170.994 90.849 170.636 91.2805 170.381C91.7218 170.126 92.2564 169.998 92.8841 169.998V171.381H92.531C91.0304 171.381 90.2801 172.195 90.2801 173.823V178.208H88.9414V170.146H90.2801V171.455ZM104.728 173.868C104.728 174.123 104.713 174.392 104.683 174.677H98.2397C98.2888 175.471 98.5585 176.094 99.0489 176.545C99.5491 176.986 100.152 177.207 100.858 177.207C101.437 177.207 101.918 177.075 102.3 176.81C102.692 176.535 102.967 176.172 103.124 175.721H104.566C104.35 176.496 103.918 177.129 103.271 177.619C102.624 178.1 101.82 178.34 100.858 178.34C100.093 178.34 99.4069 178.168 98.7988 177.825C98.2005 177.482 97.7297 176.996 97.3865 176.369C97.0432 175.731 96.8716 174.996 96.8716 174.162C96.8716 173.328 97.0383 172.598 97.3718 171.97C97.7052 171.342 98.1711 170.862 98.7694 170.528C99.3774 170.185 100.074 170.013 100.858 170.013C101.623 170.013 102.3 170.18 102.889 170.513C103.477 170.847 103.928 171.308 104.242 171.896C104.566 172.475 104.728 173.132 104.728 173.868ZM103.345 173.588C103.345 173.078 103.232 172.642 103.006 172.279C102.781 171.906 102.472 171.627 102.079 171.44C101.697 171.244 101.27 171.146 100.8 171.146C100.123 171.146 99.5442 171.362 99.0636 171.793C98.5928 172.225 98.3231 172.823 98.2545 173.588H103.345ZM122.613 167.954V169.042H119.817V178.208H118.479V169.042H115.669V167.954H122.613ZM134.559 173.868C134.559 174.123 134.544 174.392 134.514 174.677H128.071C128.12 175.471 128.39 176.094 128.88 176.545C129.38 176.986 129.983 177.207 130.689 177.207C131.268 177.207 131.749 177.075 132.131 176.81C132.524 176.535 132.798 176.172 132.955 175.721H134.397C134.181 176.496 133.749 177.129 133.102 177.619C132.455 178.1 131.651 178.34 130.689 178.34C129.924 178.34 129.238 178.168 128.63 177.825C128.032 177.482 127.561 176.996 127.218 176.369C126.874 175.731 126.703 174.996 126.703 174.162C126.703 173.328 126.869 172.598 127.203 171.97C127.536 171.342 128.002 170.862 128.6 170.528C129.209 170.185 129.905 170.013 130.689 170.013C131.454 170.013 132.131 170.18 132.72 170.513C133.308 170.847 133.759 171.308 134.073 171.896C134.397 172.475 134.559 173.132 134.559 173.868ZM133.176 173.588C133.176 173.078 133.063 172.642 132.837 172.279C132.612 171.906 132.303 171.627 131.911 171.44C131.528 171.244 131.101 171.146 130.631 171.146C129.954 171.146 129.375 171.362 128.895 171.793C128.424 172.225 128.154 172.823 128.086 173.588H133.176ZM138.768 174.162C138.768 173.328 138.935 172.602 139.268 171.985C139.601 171.357 140.062 170.871 140.651 170.528C141.249 170.185 141.931 170.013 142.696 170.013C143.686 170.013 144.5 170.253 145.138 170.734C145.785 171.215 146.212 171.882 146.418 172.735H144.976C144.839 172.244 144.569 171.857 144.167 171.573C143.775 171.288 143.284 171.146 142.696 171.146C141.931 171.146 141.313 171.411 140.842 171.94C140.371 172.46 140.136 173.201 140.136 174.162C140.136 175.133 140.371 175.883 140.842 176.413C141.313 176.942 141.931 177.207 142.696 177.207C143.284 177.207 143.775 177.07 144.167 176.795C144.559 176.521 144.829 176.128 144.976 175.618H146.418C146.202 176.442 145.771 177.104 145.123 177.604C144.476 178.095 143.667 178.34 142.696 178.34C141.931 178.34 141.249 178.168 140.651 177.825C140.062 177.482 139.601 176.996 139.268 176.369C138.935 175.741 138.768 175.005 138.768 174.162ZM155.148 169.998C155.756 169.998 156.305 170.131 156.796 170.396C157.286 170.651 157.669 171.038 157.943 171.558C158.228 172.078 158.37 172.71 158.37 173.456V178.208H157.046V173.647C157.046 172.843 156.845 172.23 156.443 171.808C156.04 171.376 155.491 171.161 154.795 171.161C154.089 171.161 153.525 171.381 153.103 171.823C152.691 172.264 152.485 172.906 152.485 173.75V178.208H151.146V167.321H152.485V171.293C152.75 170.881 153.113 170.562 153.574 170.337C154.045 170.111 154.569 169.998 155.148 169.998ZM167.427 169.998C168.408 169.998 169.202 170.298 169.81 170.896C170.418 171.484 170.722 172.338 170.722 173.456V178.208H169.398V173.647C169.398 172.843 169.197 172.23 168.795 171.808C168.393 171.376 167.844 171.161 167.147 171.161C166.441 171.161 165.877 171.381 165.456 171.823C165.044 172.264 164.838 172.906 164.838 173.75V178.208H163.499V170.146H164.838V171.293C165.103 170.881 165.461 170.562 165.912 170.337C166.373 170.111 166.878 169.998 167.427 169.998ZM179.368 178.34C178.612 178.34 177.926 178.168 177.308 177.825C176.7 177.482 176.219 176.996 175.866 176.369C175.523 175.731 175.351 174.996 175.351 174.162C175.351 173.338 175.528 172.612 175.881 171.985C176.244 171.347 176.734 170.862 177.352 170.528C177.97 170.185 178.661 170.013 179.426 170.013C180.191 170.013 180.883 170.185 181.501 170.528C182.119 170.862 182.604 171.342 182.957 171.97C183.32 172.598 183.501 173.328 183.501 174.162C183.501 174.996 183.315 175.731 182.942 176.369C182.58 176.996 182.084 177.482 181.457 177.825C180.829 178.168 180.133 178.34 179.368 178.34ZM179.368 177.163C179.848 177.163 180.299 177.05 180.721 176.825C181.143 176.599 181.481 176.261 181.736 175.81C182.001 175.358 182.133 174.809 182.133 174.162C182.133 173.515 182.006 172.965 181.751 172.514C181.496 172.063 181.162 171.73 180.75 171.514C180.339 171.288 179.892 171.175 179.412 171.175C178.921 171.175 178.47 171.288 178.058 171.514C177.656 171.73 177.332 172.063 177.087 172.514C176.842 172.965 176.719 173.515 176.719 174.162C176.719 174.819 176.837 175.373 177.073 175.824C177.318 176.275 177.641 176.614 178.044 176.839C178.446 177.055 178.887 177.163 179.368 177.163ZM189.543 167.321V178.208H188.204V167.321H189.543ZM198.283 178.34C197.528 178.34 196.841 178.168 196.223 177.825C195.615 177.482 195.135 176.996 194.781 176.369C194.438 175.731 194.267 174.996 194.267 174.162C194.267 173.338 194.443 172.612 194.796 171.985C195.159 171.347 195.649 170.862 196.267 170.528C196.885 170.185 197.577 170.013 198.342 170.013C199.107 170.013 199.798 170.185 200.416 170.528C201.034 170.862 201.519 171.342 201.872 171.97C202.235 172.598 202.417 173.328 202.417 174.162C202.417 174.996 202.23 175.731 201.858 176.369C201.495 176.996 201 177.482 200.372 177.825C199.744 178.168 199.048 178.34 198.283 178.34ZM198.283 177.163C198.763 177.163 199.215 177.05 199.636 176.825C200.058 176.599 200.396 176.261 200.651 175.81C200.916 175.358 201.049 174.809 201.049 174.162C201.049 173.515 200.921 172.965 200.666 172.514C200.411 172.063 200.078 171.73 199.666 171.514C199.254 171.288 198.807 171.175 198.327 171.175C197.837 171.175 197.385 171.288 196.973 171.514C196.571 171.73 196.248 172.063 196.002 172.514C195.757 172.965 195.635 173.515 195.635 174.162C195.635 174.819 195.752 175.373 195.988 175.824C196.233 176.275 196.557 176.614 196.959 176.839C197.361 177.055 197.802 177.163 198.283 177.163ZM210.444 170.013C211.14 170.013 211.748 170.165 212.268 170.469C212.798 170.773 213.19 171.156 213.445 171.617V170.146H214.799V178.384C214.799 179.12 214.642 179.772 214.328 180.341C214.014 180.919 213.563 181.371 212.974 181.694C212.396 182.018 211.719 182.18 210.944 182.18C209.885 182.18 209.002 181.93 208.296 181.429C207.59 180.929 207.173 180.248 207.046 179.384H208.37C208.517 179.875 208.821 180.267 209.282 180.561C209.743 180.865 210.297 181.017 210.944 181.017C211.68 181.017 212.278 180.787 212.739 180.326C213.21 179.865 213.445 179.218 213.445 178.384V176.692C213.18 177.163 212.788 177.555 212.268 177.869C211.748 178.183 211.14 178.34 210.444 178.34C209.728 178.34 209.076 178.163 208.487 177.81C207.909 177.457 207.453 176.962 207.119 176.324C206.786 175.687 206.619 174.961 206.619 174.147C206.619 173.323 206.786 172.602 207.119 171.985C207.453 171.357 207.909 170.871 208.487 170.528C209.076 170.185 209.728 170.013 210.444 170.013ZM213.445 174.162C213.445 173.554 213.323 173.024 213.077 172.573C212.832 172.122 212.499 171.779 212.077 171.543C211.665 171.298 211.209 171.175 210.709 171.175C210.209 171.175 209.753 171.293 209.341 171.528C208.929 171.764 208.6 172.107 208.355 172.558C208.11 173.009 207.987 173.539 207.987 174.147C207.987 174.765 208.11 175.304 208.355 175.765C208.6 176.217 208.929 176.565 209.341 176.81C209.753 177.045 210.209 177.163 210.709 177.163C211.209 177.163 211.665 177.045 212.077 176.81C212.499 176.565 212.832 176.217 213.077 175.765C213.323 175.304 213.445 174.77 213.445 174.162ZM226.947 170.146L222.092 182.003H220.71L222.298 178.119L219.047 170.146H220.533L223.063 176.678L225.564 170.146H226.947ZM248.501 168.027V178.208H247.162V170.616L243.778 178.208H242.837L239.438 170.602V178.208H238.1V168.027H239.541L243.308 176.442L247.074 168.027H248.501ZM261.069 173.868C261.069 174.123 261.055 174.392 261.025 174.677H254.581C254.63 175.471 254.9 176.094 255.391 176.545C255.891 176.986 256.494 177.207 257.2 177.207C257.779 177.207 258.259 177.075 258.642 176.81C259.034 176.535 259.309 176.172 259.466 175.721H260.907C260.692 176.496 260.26 177.129 259.613 177.619C258.965 178.1 258.161 178.34 257.2 178.34C256.435 178.34 255.749 178.168 255.14 177.825C254.542 177.482 254.071 176.996 253.728 176.369C253.385 175.731 253.213 174.996 253.213 174.162C253.213 173.328 253.38 172.598 253.713 171.97C254.047 171.342 254.513 170.862 255.111 170.528C255.719 170.185 256.415 170.013 257.2 170.013C257.965 170.013 258.642 170.18 259.23 170.513C259.819 170.847 260.27 171.308 260.584 171.896C260.907 172.475 261.069 173.132 261.069 173.868ZM259.686 173.588C259.686 173.078 259.574 172.642 259.348 172.279C259.122 171.906 258.813 171.627 258.421 171.44C258.039 171.244 257.612 171.146 257.141 171.146C256.465 171.146 255.886 171.362 255.405 171.793C254.935 172.225 254.665 172.823 254.596 173.588H259.686ZM273.134 173.868C273.134 174.123 273.12 174.392 273.09 174.677H266.647C266.696 175.471 266.965 176.094 267.456 176.545C267.956 176.986 268.559 177.207 269.265 177.207C269.844 177.207 270.324 177.075 270.707 176.81C271.099 176.535 271.374 176.172 271.531 175.721H272.973C272.757 176.496 272.325 177.129 271.678 177.619C271.031 178.1 270.226 178.34 269.265 178.34C268.5 178.34 267.814 178.168 267.206 177.825C266.607 177.482 266.137 176.996 265.793 176.369C265.45 175.731 265.278 174.996 265.278 174.162C265.278 173.328 265.445 172.598 265.779 171.97C266.112 171.342 266.578 170.862 267.176 170.528C267.784 170.185 268.481 170.013 269.265 170.013C270.03 170.013 270.707 170.18 271.295 170.513C271.884 170.847 272.335 171.308 272.649 171.896C272.973 172.475 273.134 173.132 273.134 173.868ZM271.752 173.588C271.752 173.078 271.639 172.642 271.413 172.279C271.188 171.906 270.879 171.627 270.486 171.44C270.104 171.244 269.677 171.146 269.206 171.146C268.53 171.146 267.951 171.362 267.47 171.793C267 172.225 266.73 172.823 266.661 173.588H271.752ZM279.477 171.249V176.001C279.477 176.393 279.56 176.673 279.727 176.839C279.894 176.996 280.183 177.075 280.595 177.075H281.581V178.208H280.374C279.629 178.208 279.07 178.036 278.697 177.693C278.324 177.349 278.138 176.785 278.138 176.001V171.249H277.094V170.146H278.138V168.115H279.477V170.146H281.581V171.249H279.477ZM288.999 178.34C288.381 178.34 287.827 178.237 287.337 178.031C286.846 177.815 286.459 177.521 286.174 177.148C285.89 176.766 285.733 176.329 285.704 175.839H287.086C287.126 176.241 287.312 176.57 287.645 176.825C287.989 177.08 288.435 177.207 288.984 177.207C289.494 177.207 289.896 177.094 290.191 176.869C290.485 176.643 290.632 176.359 290.632 176.016C290.632 175.662 290.475 175.403 290.161 175.236C289.847 175.059 289.362 174.888 288.705 174.721C288.106 174.564 287.616 174.407 287.234 174.25C286.861 174.083 286.537 173.843 286.263 173.529C285.998 173.206 285.865 172.784 285.865 172.264C285.865 171.852 285.988 171.475 286.233 171.131C286.478 170.788 286.827 170.518 287.278 170.322C287.729 170.116 288.244 170.013 288.822 170.013C289.715 170.013 290.436 170.239 290.985 170.69C291.534 171.141 291.828 171.759 291.868 172.544H290.529C290.5 172.122 290.328 171.783 290.014 171.528C289.71 171.273 289.298 171.146 288.778 171.146C288.298 171.146 287.915 171.249 287.631 171.455C287.346 171.661 287.204 171.931 287.204 172.264C287.204 172.529 287.288 172.75 287.454 172.926C287.631 173.093 287.847 173.23 288.102 173.338C288.366 173.436 288.729 173.549 289.19 173.676C289.769 173.833 290.24 173.99 290.603 174.147C290.965 174.294 291.274 174.52 291.529 174.824C291.794 175.128 291.931 175.525 291.941 176.016C291.941 176.457 291.819 176.854 291.573 177.207C291.328 177.56 290.98 177.84 290.529 178.046C290.088 178.242 289.578 178.34 288.999 178.34ZM312.112 167.954L308.243 178.208H306.698L302.829 167.954H304.256L307.478 176.795L310.699 167.954H312.112ZM317.213 168.836C316.958 168.836 316.743 168.748 316.566 168.571C316.39 168.395 316.301 168.179 316.301 167.924C316.301 167.669 316.39 167.453 316.566 167.277C316.743 167.1 316.958 167.012 317.213 167.012C317.459 167.012 317.665 167.1 317.831 167.277C318.008 167.453 318.096 167.669 318.096 167.924C318.096 168.179 318.008 168.395 317.831 168.571C317.665 168.748 317.459 168.836 317.213 168.836ZM317.861 170.146V178.208H316.522V170.146H317.861ZM325.939 178.34C325.321 178.34 324.767 178.237 324.276 178.031C323.786 177.815 323.399 177.521 323.114 177.148C322.83 176.766 322.673 176.329 322.643 175.839H324.026C324.065 176.241 324.252 176.57 324.585 176.825C324.929 177.08 325.375 177.207 325.924 177.207C326.434 177.207 326.836 177.094 327.13 176.869C327.425 176.643 327.572 176.359 327.572 176.016C327.572 175.662 327.415 175.403 327.101 175.236C326.787 175.059 326.302 174.888 325.644 174.721C325.046 174.564 324.556 174.407 324.173 174.25C323.801 174.083 323.477 173.843 323.202 173.529C322.938 173.206 322.805 172.784 322.805 172.264C322.805 171.852 322.928 171.475 323.173 171.131C323.418 170.788 323.766 170.518 324.217 170.322C324.669 170.116 325.184 170.013 325.762 170.013C326.655 170.013 327.376 170.239 327.925 170.69C328.474 171.141 328.768 171.759 328.807 172.544H327.469C327.439 172.122 327.268 171.783 326.954 171.528C326.65 171.273 326.238 171.146 325.718 171.146C325.237 171.146 324.855 171.249 324.571 171.455C324.286 171.661 324.144 171.931 324.144 172.264C324.144 172.529 324.227 172.75 324.394 172.926C324.571 173.093 324.786 173.23 325.041 173.338C325.306 173.436 325.669 173.549 326.13 173.676C326.709 173.833 327.179 173.99 327.542 174.147C327.905 174.294 328.214 174.52 328.469 174.824C328.734 175.128 328.871 175.525 328.881 176.016C328.881 176.457 328.758 176.854 328.513 177.207C328.268 177.56 327.92 177.84 327.469 178.046C327.027 178.242 326.517 178.34 325.939 178.34ZM334.405 168.836C334.15 168.836 333.934 168.748 333.757 168.571C333.581 168.395 333.492 168.179 333.492 167.924C333.492 167.669 333.581 167.453 333.757 167.277C333.934 167.1 334.15 167.012 334.405 167.012C334.65 167.012 334.856 167.1 335.022 167.277C335.199 167.453 335.287 167.669 335.287 167.924C335.287 168.179 335.199 168.395 335.022 168.571C334.856 168.748 334.65 168.836 334.405 168.836ZM335.052 170.146V178.208H333.713V170.146H335.052ZM343.792 178.34C343.037 178.34 342.35 178.168 341.732 177.825C341.124 177.482 340.644 176.996 340.291 176.369C339.947 175.731 339.776 174.996 339.776 174.162C339.776 173.338 339.952 172.612 340.305 171.985C340.668 171.347 341.159 170.862 341.776 170.528C342.394 170.185 343.086 170.013 343.851 170.013C344.616 170.013 345.307 170.185 345.925 170.528C346.543 170.862 347.029 171.342 347.382 171.97C347.744 172.598 347.926 173.328 347.926 174.162C347.926 174.996 347.74 175.731 347.367 176.369C347.004 176.996 346.509 177.482 345.881 177.825C345.253 178.168 344.557 178.34 343.792 178.34ZM343.792 177.163C344.273 177.163 344.724 177.05 345.145 176.825C345.567 176.599 345.906 176.261 346.161 175.81C346.425 175.358 346.558 174.809 346.558 174.162C346.558 173.515 346.43 172.965 346.175 172.514C345.92 172.063 345.587 171.73 345.175 171.514C344.763 171.288 344.317 171.175 343.836 171.175C343.346 171.175 342.895 171.288 342.483 171.514C342.081 171.73 341.757 172.063 341.512 172.514C341.266 172.965 341.144 173.515 341.144 174.162C341.144 174.819 341.262 175.373 341.497 175.824C341.742 176.275 342.066 176.614 342.468 176.839C342.87 177.055 343.311 177.163 343.792 177.163ZM356.556 169.998C357.537 169.998 358.332 170.298 358.94 170.896C359.548 171.484 359.852 172.338 359.852 173.456V178.208H358.528V173.647C358.528 172.843 358.327 172.23 357.925 171.808C357.522 171.376 356.973 171.161 356.277 171.161C355.571 171.161 355.007 171.381 354.585 171.823C354.173 172.264 353.967 172.906 353.967 173.75V178.208H352.628V170.146H353.967V171.293C354.232 170.881 354.59 170.562 355.041 170.337C355.502 170.111 356.007 169.998 356.556 169.998Z" fill="#5C5C5C"/>
<path d="M370.731 174.392C370.418 174.392 370.165 174.645 370.165 174.958C370.165 175.27 370.418 175.523 370.731 175.523V174.392ZM406.114 174.958C406.114 173.291 404.763 171.94 403.096 171.94C401.43 171.94 400.079 173.291 400.079 174.958C400.079 176.624 401.43 177.975 403.096 177.975C404.763 177.975 406.114 176.624 406.114 174.958ZM370.731 175.523H403.096V174.392H370.731V175.523Z" fill="#444444"/>
<path d="M36.2882 175.523C36.6007 175.523 36.854 175.27 36.854 174.958C36.854 174.645 36.6007 174.392 36.2882 174.392L36.2882 175.523ZM0.905481 174.958C0.905481 176.624 2.2564 177.975 3.92285 177.975C5.5893 177.975 6.94022 176.624 6.94022 174.958C6.94022 173.291 5.5893 171.94 3.92285 171.94C2.2564 171.94 0.905481 173.291 0.905481 174.958ZM36.2882 174.392L3.92285 174.392L3.92285 175.523L36.2882 175.523L36.2882 174.392Z" fill="#444444"/>
</svg>
