<svg width="545" height="115" viewBox="0 0 545 115" fill="none" xmlns="http://www.w3.org/2000/svg">
<circle cx="57.375" cy="57.375" r="57.375" fill="#0066FF"/>
<path d="M62.0878 15.168L63.5227 14.3948L62.6751 12.8219L61.1865 13.81L62.0878 15.168ZM77.7202 51.9131C74.8496 55.7614 75.6422 61.2082 79.4905 64.0788C83.3389 66.9494 88.7856 66.1567 91.6562 62.3084C94.5268 58.4601 93.7342 53.0133 89.8859 50.1427C86.0375 47.2721 80.5908 48.0647 77.7202 51.9131ZM40.4154 44.2221L38.7881 44.3154L38.7881 44.3154L40.4154 44.2221ZM75.0378 70.0481L76.6639 69.9357L75.0378 70.0481ZM52.8434 99.8021L51.3944 100.549L52.2255 102.162L53.7406 101.163L52.8434 99.8021ZM23.8626 51.8739C20.992 55.7222 21.7846 61.169 25.6329 64.0396C29.4813 66.9102 34.928 66.1176 37.7986 62.2692C40.6692 58.4209 39.8766 52.9741 36.0283 50.1035C32.18 47.2329 26.7332 48.0256 23.8626 51.8739ZM60.6529 15.9412L83.2533 57.8839L86.1231 56.3376L63.5227 14.3948L60.6529 15.9412ZM62.0878 15.168C61.1865 13.81 61.1861 13.8102 61.1856 13.8105C61.1853 13.8107 61.1848 13.8111 61.1842 13.8115C61.1831 13.8122 61.1817 13.8131 61.1799 13.8143C61.1764 13.8167 61.1715 13.8199 61.1653 13.8241C61.1529 13.8324 61.1351 13.8443 61.1121 13.8598C61.0663 13.8907 60.9997 13.9359 60.9139 13.9947C60.7424 14.1122 60.4938 14.2847 60.1793 14.5081C59.5506 14.9547 58.6577 15.6059 57.5906 16.4309C55.4594 18.0786 52.6191 20.4306 49.7975 23.2407C46.9822 26.0446 44.1447 29.3447 42.0553 32.8935C39.972 36.4317 38.5602 40.3401 38.7881 44.3154L42.0427 44.1288C41.8655 41.0381 42.9601 37.7818 44.8644 34.5475C46.7626 31.3237 49.3938 28.2436 52.0979 25.5504C54.7958 22.8635 57.5255 20.6017 59.5845 19.0099C60.6125 18.2151 61.4697 17.5901 62.0673 17.1656C62.3661 16.9533 62.5997 16.7914 62.7571 16.6835C62.8358 16.6295 62.8954 16.5891 62.9345 16.5627C62.9541 16.5495 62.9686 16.5398 62.9777 16.5337C62.9823 16.5306 62.9856 16.5285 62.9875 16.5272C62.9884 16.5266 62.9891 16.5261 62.9893 16.526C62.9895 16.5259 62.9894 16.5259 62.9895 16.5258C62.9894 16.5259 62.9892 16.5261 62.0878 15.168ZM38.7881 44.3154C39.0681 49.1969 41.6951 52.2989 45.2382 54.3979C48.6698 56.4309 53.0975 57.6068 57.2306 58.7142C61.4871 59.8547 65.4515 60.9272 68.4475 62.6871C71.3359 64.3837 73.1671 66.6224 73.4118 70.1605L76.6639 69.9357C76.3268 65.0598 73.6601 61.9683 70.0986 59.8762C66.6447 57.8474 62.2073 56.6728 58.0743 55.5654C53.818 54.4249 49.8686 53.3521 46.8997 51.5932C44.0424 49.9005 42.2456 47.6676 42.0427 44.1288L38.7881 44.3154ZM73.4118 70.1605C73.6306 73.3263 72.5288 76.661 70.5858 79.9735C68.6488 83.2757 65.9481 86.4316 63.1673 89.1913C60.3931 91.9447 57.5809 94.2628 55.4584 95.8945C54.3987 96.7091 53.5146 97.3499 52.8979 97.7852C52.5897 98.0028 52.3486 98.1689 52.1861 98.2796C52.1048 98.335 52.0432 98.3764 52.0028 98.4036C51.9825 98.4171 51.9676 98.4271 51.9581 98.4334C51.9533 98.4365 51.95 98.4388 51.948 98.4401C51.947 98.4408 51.9463 98.4412 51.946 98.4414C51.9459 98.4415 51.9459 98.4415 51.9458 98.4415C51.946 98.4414 51.9462 98.4413 52.8434 99.8021C53.7406 101.163 53.7409 101.163 53.7414 101.162C53.7417 101.162 53.7423 101.162 53.7428 101.161C53.7439 101.161 53.7454 101.16 53.7472 101.158C53.7508 101.156 53.7559 101.153 53.7623 101.149C53.775 101.14 53.7933 101.128 53.817 101.112C53.8642 101.08 53.9327 101.034 54.0211 100.974C54.1979 100.854 54.4541 100.677 54.7781 100.448C55.426 99.9908 56.3462 99.3239 57.4453 98.4789C59.6404 96.7914 62.5644 94.3826 65.4637 91.5051C68.3566 88.6341 71.2669 85.2553 73.3977 81.6229C75.5223 78.0007 76.9449 74.0007 76.6639 69.9357L73.4118 70.1605ZM54.2923 99.0556L32.2796 56.3251L29.3816 57.818L51.3944 100.549L54.2923 99.0556Z" fill="white"/>
<path d="M149.506 65.563C147.388 65.563 145.511 65.1877 143.876 64.437C142.241 63.6864 140.954 62.5873 140.016 61.1397C139.104 59.6653 138.649 57.8826 138.649 55.7916V54.7863H142.951V55.7916C142.951 57.7753 143.541 59.2632 144.721 60.255C145.927 61.2469 147.522 61.7429 149.506 61.7429C151.516 61.7429 153.031 61.3273 154.05 60.4963C155.068 59.6385 155.578 58.5393 155.578 57.199C155.578 56.3143 155.336 55.5905 154.854 55.0275C154.371 54.4646 153.688 54.0222 152.803 53.7006C151.918 53.3521 150.86 53.0304 149.626 52.7355L148.139 52.3736C146.342 51.9447 144.774 51.4219 143.434 50.8053C142.12 50.1619 141.102 49.3175 140.378 48.272C139.654 47.2265 139.292 45.8861 139.292 44.2508C139.292 42.5888 139.694 41.168 140.498 39.9884C141.329 38.8089 142.469 37.8974 143.916 37.254C145.364 36.6107 147.066 36.289 149.023 36.289C150.98 36.289 152.723 36.6241 154.251 37.2943C155.806 37.9644 157.025 38.9563 157.91 40.2699C158.795 41.5835 159.237 43.2322 159.237 45.2159V46.6635H154.934V45.2159C154.934 44.0096 154.68 43.0311 154.17 42.2805C153.688 41.5299 153.004 40.9803 152.12 40.6318C151.235 40.2833 150.203 40.1091 149.023 40.1091C147.308 40.1091 145.967 40.471 145.002 41.1948C144.064 41.8918 143.595 42.8702 143.595 44.1302C143.595 44.9881 143.796 45.6985 144.198 46.2614C144.627 46.7976 145.243 47.2399 146.048 47.5884C146.852 47.9369 147.857 48.2452 149.063 48.5133L150.551 48.8752C152.374 49.2773 153.983 49.8 155.377 50.4434C156.771 51.06 157.87 51.9044 158.674 52.9767C159.478 54.0491 159.88 55.4297 159.88 57.1185C159.88 58.8074 159.451 60.2818 158.594 61.5418C157.763 62.8018 156.57 63.7937 155.015 64.5175C153.46 65.2145 151.624 65.563 149.506 65.563ZM163.756 65V45.1757H167.817V47.508H168.46C168.836 46.811 169.439 46.1944 170.27 45.6582C171.101 45.1221 172.227 44.854 173.648 44.854C175.122 44.854 176.302 45.1623 177.186 45.7789C178.098 46.3687 178.781 47.1327 179.237 48.0709H179.881C180.336 47.1595 180.993 46.3955 181.851 45.7789C182.736 45.1623 183.982 44.854 185.591 44.854C186.877 44.854 188.017 45.1221 189.009 45.6582C190 46.1676 190.791 46.945 191.381 47.9905C191.971 49.0092 192.266 50.2826 192.266 51.8106V65H188.124V52.1323C188.124 50.926 187.789 50.0011 187.119 49.3577C186.475 48.6875 185.55 48.3524 184.344 48.3524C183.057 48.3524 182.025 48.7679 181.248 49.599C180.47 50.43 180.082 51.623 180.082 53.1778V65H175.94V52.1323C175.94 50.926 175.605 50.0011 174.935 49.3577C174.291 48.6875 173.366 48.3524 172.16 48.3524C170.873 48.3524 169.841 48.7679 169.064 49.599C168.286 50.43 167.898 51.623 167.898 53.1778V65H163.756ZM203.582 65.563C202.161 65.563 200.888 65.3217 199.762 64.8392C198.663 64.3566 197.778 63.6462 197.108 62.7079C196.465 61.7697 196.143 60.6303 196.143 59.29C196.143 57.9228 196.465 56.7968 197.108 55.9122C197.778 55.0007 198.676 54.3171 199.802 53.8614C200.955 53.4057 202.255 53.1778 203.703 53.1778H209.735V51.891C209.735 50.7383 209.386 49.8134 208.689 49.1164C207.992 48.4194 206.92 48.0709 205.472 48.0709C204.051 48.0709 202.966 48.406 202.215 49.0762C201.464 49.7464 200.968 50.6177 200.727 51.69L196.867 50.4434C197.189 49.3711 197.698 48.406 198.395 47.5482C199.119 46.6635 200.07 45.9531 201.25 45.417C202.429 44.8808 203.85 44.6127 205.512 44.6127C208.086 44.6127 210.11 45.2695 211.584 46.5831C213.059 47.8967 213.796 49.7598 213.796 52.1725V60.3355C213.796 61.1397 214.171 61.5418 214.922 61.5418H216.611V65H213.514C212.576 65 211.812 64.7587 211.222 64.2762C210.633 63.7937 210.338 63.1369 210.338 62.3058V62.1852H209.735C209.52 62.5873 209.198 63.0564 208.769 63.5926C208.341 64.1288 207.711 64.5979 206.879 65C206.048 65.3753 204.949 65.563 203.582 65.563ZM204.185 62.145C205.847 62.145 207.188 61.6758 208.206 60.7376C209.225 59.7725 209.735 58.4589 209.735 56.7968V56.3947H203.944C202.845 56.3947 201.96 56.636 201.29 57.1185C200.62 57.5743 200.285 58.2579 200.285 59.1693C200.285 60.0808 200.633 60.8046 201.33 61.3407C202.027 61.8769 202.979 62.145 204.185 62.145ZM219.834 65V45.1757H223.895V47.508H224.538C224.86 46.6769 225.369 46.0738 226.066 45.6985C226.79 45.2963 227.675 45.0953 228.72 45.0953H231.093V48.835H228.559C227.219 48.835 226.12 49.2103 225.262 49.9609C224.404 50.6847 223.975 51.8106 223.975 53.3387V65H219.834ZM242.019 65C240.813 65 239.848 64.6381 239.124 63.9143C238.427 63.1905 238.078 62.2254 238.078 61.0191V48.6741H232.61V45.1757H238.078V38.6212H242.22V45.1757H248.131V48.6741H242.22V60.2952C242.22 61.0995 242.595 61.5016 243.346 61.5016H247.488V65H242.019ZM266.757 65L258.916 36.8519H263.419L270.255 62.2656H270.778L277.574 36.8519H282.078L274.277 65H266.757ZM285.22 65V45.1757H289.362V65H285.22ZM287.311 42.4815C286.506 42.4815 285.823 42.2269 285.26 41.7175C284.724 41.1814 284.456 40.4978 284.456 39.6667C284.456 38.8357 284.724 38.1655 285.26 37.6562C285.823 37.12 286.506 36.8519 287.311 36.8519C288.142 36.8519 288.825 37.12 289.362 37.6562C289.898 38.1655 290.166 38.8357 290.166 39.6667C290.166 40.4978 289.898 41.1814 289.362 41.7175C288.825 42.2269 288.142 42.4815 287.311 42.4815ZM302.827 65.563C300.307 65.563 298.216 65 296.554 63.8741C294.892 62.7482 293.873 61.0459 293.498 58.7672L297.358 57.8423C297.572 58.9415 297.934 59.8127 298.444 60.4561C298.953 61.0995 299.583 61.5552 300.334 61.8233C301.111 62.0914 301.942 62.2254 302.827 62.2254C304.14 62.2254 305.146 61.9707 305.843 61.4614C306.566 60.952 306.928 60.2952 306.928 59.491C306.928 58.6868 306.593 58.097 305.923 57.7217C305.253 57.3464 304.261 57.0381 302.947 56.7968L301.58 56.5556C300.24 56.3143 299.02 55.9658 297.921 55.5101C296.822 55.0543 295.951 54.4244 295.307 53.6201C294.664 52.8159 294.342 51.7838 294.342 50.5238C294.342 48.6473 295.039 47.1997 296.433 46.181C297.827 45.1355 299.677 44.6127 301.982 44.6127C304.207 44.6127 306.03 45.1221 307.451 46.1408C308.899 47.1327 309.837 48.4865 310.266 50.2022L306.406 51.2879C306.164 50.0815 305.655 49.2371 304.878 48.7545C304.1 48.2452 303.135 47.9905 301.982 47.9905C300.856 47.9905 299.972 48.205 299.328 48.6339C298.685 49.036 298.363 49.6124 298.363 50.363C298.363 51.1672 298.672 51.757 299.288 52.1323C299.931 52.5076 300.789 52.7891 301.862 52.9767L303.269 53.218C304.69 53.4593 305.99 53.7944 307.17 54.2233C308.349 54.6522 309.274 55.2688 309.944 56.073C310.641 56.8773 310.99 57.9496 310.99 59.29C310.99 61.2737 310.252 62.8152 308.778 63.9143C307.304 65.0134 305.32 65.563 302.827 65.563ZM315.027 65V45.1757H319.168V65H315.027ZM317.118 42.4815C316.313 42.4815 315.63 42.2269 315.067 41.7175C314.531 41.1814 314.263 40.4978 314.263 39.6667C314.263 38.8357 314.531 38.1655 315.067 37.6562C315.63 37.12 316.313 36.8519 317.118 36.8519C317.949 36.8519 318.632 37.12 319.168 37.6562C319.704 38.1655 319.973 38.8357 319.973 39.6667C319.973 40.4978 319.704 41.1814 319.168 41.7175C318.632 42.2269 317.949 42.4815 317.118 42.4815ZM333.8 65.563C331.816 65.563 330.047 65.1608 328.492 64.3566C326.964 63.5256 325.757 62.346 324.873 60.818C323.988 59.29 323.546 57.4804 323.546 55.3894V54.7863C323.546 52.6953 323.988 50.8992 324.873 49.3979C325.757 47.8699 326.964 46.6903 328.492 45.8593C330.047 45.0283 331.816 44.6127 333.8 44.6127C335.783 44.6127 337.553 45.0283 339.108 45.8593C340.662 46.6903 341.882 47.8699 342.767 49.3979C343.651 50.8992 344.094 52.6953 344.094 54.7863V55.3894C344.094 57.4804 343.651 59.29 342.767 60.818C341.882 62.346 340.662 63.5256 339.108 64.3566C337.553 65.1608 335.783 65.563 333.8 65.563ZM333.8 61.8635C335.623 61.8635 337.097 61.2871 338.223 60.1344C339.376 58.9549 339.952 57.333 339.952 55.2688V54.9069C339.952 52.8427 339.389 51.2343 338.263 50.0815C337.137 48.902 335.649 48.3122 333.8 48.3122C332.004 48.3122 330.529 48.902 329.376 50.0815C328.25 51.2343 327.688 52.8427 327.688 54.9069V55.2688C327.688 57.333 328.25 58.9549 329.376 60.1344C330.529 61.2871 332.004 61.8635 333.8 61.8635ZM348.446 65V45.1757H352.507V48.1514H353.151C353.526 47.3471 354.196 46.5965 355.161 45.8995C356.126 45.2025 357.561 44.854 359.464 44.854C360.965 44.854 362.292 45.1891 363.445 45.8593C364.625 46.5295 365.549 47.4812 366.22 48.7143C366.89 49.9207 367.225 51.3817 367.225 53.0974V65H363.083V53.4191C363.083 51.7034 362.654 50.4434 361.796 49.6392C360.938 48.8082 359.759 48.3926 358.258 48.3926C356.542 48.3926 355.161 48.9556 354.116 50.0815C353.097 51.2074 352.588 52.8427 352.588 54.9873V65H348.446ZM387.282 65V40.7927H378.637V36.8519H400.271V40.7927H391.625V65H387.282ZM408.723 65.563C406.713 65.563 404.957 65.1474 403.456 64.3164C401.955 63.4586 400.775 62.2656 399.917 60.7376C399.086 59.1827 398.671 57.3866 398.671 55.3492V54.8667C398.671 52.8025 399.086 51.0064 399.917 49.4783C400.748 47.9235 401.901 46.7306 403.375 45.8995C404.877 45.0417 406.606 44.6127 408.563 44.6127C410.466 44.6127 412.128 45.0417 413.549 45.8995C414.996 46.7306 416.122 47.8967 416.927 49.3979C417.731 50.8992 418.133 52.6551 418.133 54.6656V56.2339H402.893C402.946 57.9764 403.523 59.3704 404.622 60.4159C405.748 61.4346 407.142 61.9439 408.804 61.9439C410.359 61.9439 411.525 61.5954 412.302 60.8984C413.107 60.2014 413.723 59.3972 414.152 58.4857L417.57 60.255C417.195 61.0057 416.645 61.7965 415.921 62.6275C415.224 63.4586 414.299 64.1556 413.147 64.7185C411.994 65.2815 410.52 65.563 408.723 65.563ZM402.933 53.0572H413.911C413.804 51.5559 413.267 50.3898 412.302 49.5588C411.337 48.7009 410.077 48.272 408.522 48.272C406.968 48.272 405.694 48.7009 404.702 49.5588C403.737 50.3898 403.147 51.5559 402.933 53.0572ZM431.523 65.563C429.619 65.563 427.89 65.1608 426.336 64.3566C424.807 63.5524 423.588 62.3862 422.676 60.8582C421.792 59.3302 421.349 57.4938 421.349 55.3492V54.8265C421.349 52.6819 421.792 50.8589 422.676 49.3577C423.588 47.8297 424.807 46.6635 426.336 45.8593C427.89 45.0283 429.619 44.6127 431.523 44.6127C433.426 44.6127 435.048 44.9612 436.388 45.6582C437.729 46.3553 438.801 47.2801 439.605 48.4328C440.436 49.5856 440.972 50.8589 441.214 52.2529L437.193 53.0974C437.059 52.2127 436.777 51.4085 436.348 50.6847C435.919 49.9609 435.316 49.3845 434.539 48.9556C433.761 48.5267 432.783 48.3122 431.603 48.3122C430.45 48.3122 429.405 48.5803 428.467 49.1164C427.555 49.6258 426.831 50.3764 426.295 51.3683C425.759 52.3334 425.491 53.5129 425.491 54.9069V55.2688C425.491 56.6628 425.759 57.8557 426.295 58.8476C426.831 59.8395 427.555 60.5901 428.467 61.0995C429.405 61.6088 430.45 61.8635 431.603 61.8635C433.346 61.8635 434.673 61.4212 435.584 60.5365C436.496 59.6251 437.072 58.4723 437.313 57.0783L441.334 58.0032C441.013 59.3704 440.436 60.6303 439.605 61.7831C438.801 62.9358 437.729 63.8607 436.388 64.5577C435.048 65.2279 433.426 65.563 431.523 65.563ZM445.307 65V36.8519H449.449V47.9905H450.092C450.36 47.4812 450.736 46.9852 451.218 46.5027C451.728 46.0202 452.384 45.6314 453.189 45.3366C454.02 45.0149 455.065 44.854 456.325 44.854C457.826 44.854 459.153 45.1891 460.306 45.8593C461.486 46.5295 462.41 47.4812 463.081 48.7143C463.751 49.9207 464.086 51.3817 464.086 53.0974V65H459.944V53.4191C459.944 51.7034 459.515 50.4434 458.657 49.6392C457.8 48.8082 456.62 48.3926 455.119 48.3926C453.403 48.3926 452.023 48.9556 450.977 50.0815C449.958 51.2074 449.449 52.8427 449.449 54.9873V65H445.307ZM469.242 65V36.8519H473.384V65H469.242ZM484.879 65.563C483.458 65.563 482.185 65.3217 481.059 64.8392C479.96 64.3566 479.075 63.6462 478.405 62.7079C477.762 61.7697 477.44 60.6303 477.44 59.29C477.44 57.9228 477.762 56.7968 478.405 55.9122C479.075 55.0007 479.973 54.3171 481.099 53.8614C482.252 53.4057 483.552 53.1778 485 53.1778H491.031V51.891C491.031 50.7383 490.683 49.8134 489.986 49.1164C489.289 48.4194 488.217 48.0709 486.769 48.0709C485.348 48.0709 484.263 48.406 483.512 49.0762C482.761 49.7464 482.265 50.6177 482.024 51.69L478.164 50.4434C478.485 49.3711 478.995 48.406 479.692 47.5482C480.416 46.6635 481.367 45.9531 482.547 45.417C483.726 44.8808 485.147 44.6127 486.809 44.6127C489.383 44.6127 491.407 45.2695 492.881 46.5831C494.356 47.8967 495.093 49.7598 495.093 52.1725V60.3355C495.093 61.1397 495.468 61.5418 496.219 61.5418H497.908V65H494.811C493.873 65 493.109 64.7587 492.519 64.2762C491.93 63.7937 491.635 63.1369 491.635 62.3058V62.1852H491.031C490.817 62.5873 490.495 63.0564 490.066 63.5926C489.637 64.1288 489.007 64.5979 488.176 65C487.345 65.3753 486.246 65.563 484.879 65.563ZM485.482 62.145C487.144 62.145 488.485 61.6758 489.503 60.7376C490.522 59.7725 491.031 58.4589 491.031 56.7968V56.3947H485.241C484.142 56.3947 483.257 56.636 482.587 57.1185C481.917 57.5743 481.582 58.2579 481.582 59.1693C481.582 60.0808 481.93 60.8046 482.627 61.3407C483.324 61.8769 484.276 62.145 485.482 62.145ZM512.591 65.563C510.661 65.563 509.173 65.2145 508.127 64.5175C507.109 63.8205 506.345 63.043 505.835 62.1852H505.192V65H501.131V36.8519H505.272V47.8699H505.916C506.237 47.3337 506.666 46.8244 507.202 46.3418C507.739 45.8325 508.449 45.417 509.334 45.0953C510.218 44.7736 511.304 44.6127 512.591 44.6127C514.253 44.6127 515.781 45.0149 517.175 45.8191C518.569 46.6233 519.681 47.7895 520.513 49.3175C521.344 50.8455 521.759 52.6685 521.759 54.7863V55.3894C521.759 57.5341 521.33 59.3704 520.472 60.8984C519.641 62.3997 518.529 63.5524 517.135 64.3566C515.768 65.1608 514.253 65.563 512.591 65.563ZM511.384 61.9439C513.181 61.9439 514.655 61.3676 515.808 60.2148C516.987 59.0621 517.577 57.4134 517.577 55.2688V54.9069C517.577 52.7891 517.001 51.1538 515.848 50.0011C514.695 48.8484 513.207 48.272 511.384 48.272C509.615 48.272 508.141 48.8484 506.961 50.0011C505.808 51.1538 505.232 52.7891 505.232 54.9069V55.2688C505.232 57.4134 505.808 59.0621 506.961 60.2148C508.141 61.3676 509.615 61.9439 511.384 61.9439ZM534.21 65.563C531.69 65.563 529.599 65 527.937 63.8741C526.274 62.7482 525.256 61.0459 524.88 58.7672L528.741 57.8423C528.955 58.9415 529.317 59.8127 529.827 60.4561C530.336 61.0995 530.966 61.5552 531.716 61.8233C532.494 62.0914 533.325 62.2254 534.21 62.2254C535.523 62.2254 536.528 61.9707 537.225 61.4614C537.949 60.952 538.311 60.2952 538.311 59.491C538.311 58.6868 537.976 58.097 537.306 57.7217C536.636 57.3464 535.644 57.0381 534.33 56.7968L532.963 56.5556C531.623 56.3143 530.403 55.9658 529.304 55.5101C528.205 55.0543 527.333 54.4244 526.69 53.6201C526.047 52.8159 525.725 51.7838 525.725 50.5238C525.725 48.6473 526.422 47.1997 527.816 46.181C529.21 45.1355 531.06 44.6127 533.365 44.6127C535.59 44.6127 537.413 45.1221 538.834 46.1408C540.282 47.1327 541.22 48.4865 541.649 50.2022L537.788 51.2879C537.547 50.0815 537.038 49.2371 536.26 48.7545C535.483 48.2452 534.518 47.9905 533.365 47.9905C532.239 47.9905 531.355 48.205 530.711 48.6339C530.068 49.036 529.746 49.6124 529.746 50.363C529.746 51.1672 530.054 51.757 530.671 52.1323C531.314 52.5076 532.172 52.7891 533.244 52.9767L534.652 53.218C536.073 53.4593 537.373 53.7944 538.552 54.2233C539.732 54.6522 540.657 55.2688 541.327 56.073C542.024 56.8773 542.373 57.9496 542.373 59.29C542.373 61.2737 541.635 62.8152 540.161 63.9143C538.686 65.0134 536.703 65.563 534.21 65.563Z" fill="black"/>
<path d="M197.116 73.3189L194.145 83.5729H192.644L190.261 75.3197L187.789 83.5729L186.303 83.5876L183.435 73.3189H184.862L187.098 82.0135L189.569 73.3189H191.07L193.424 81.984L195.675 73.3189H197.116ZM205.525 75.3638C206.133 75.3638 206.683 75.4962 207.173 75.761C207.663 76.016 208.046 76.4035 208.32 76.9233C208.605 77.4431 208.747 78.0757 208.747 78.821V83.5729H207.423V79.0123C207.423 78.2081 207.222 77.5951 206.82 77.1734C206.418 76.7418 205.868 76.526 205.172 76.526C204.466 76.526 203.902 76.7467 203.48 77.1881C203.068 77.6294 202.862 78.2718 202.862 79.1153V83.5729H201.524V72.6863H202.862V76.6585C203.127 76.2465 203.49 75.9278 203.951 75.7022C204.422 75.4766 204.947 75.3638 205.525 75.3638ZM221.232 79.233C221.232 79.488 221.217 79.7577 221.188 80.0421H214.744C214.793 80.8365 215.063 81.4593 215.553 81.9105C216.053 82.3518 216.657 82.5725 217.363 82.5725C217.941 82.5725 218.422 82.4401 218.805 82.1753C219.197 81.9007 219.471 81.5378 219.628 81.0866H221.07C220.854 81.8614 220.423 82.494 219.776 82.9844C219.128 83.465 218.324 83.7053 217.363 83.7053C216.598 83.7053 215.911 83.5336 215.303 83.1904C214.705 82.8471 214.234 82.3616 213.891 81.7339C213.548 81.0964 213.376 80.3609 213.376 79.5272C213.376 78.6935 213.543 77.9629 213.876 77.3352C214.21 76.7075 214.676 76.2269 215.274 75.8935C215.882 75.5502 216.578 75.3785 217.363 75.3785C218.128 75.3785 218.805 75.5453 219.393 75.8787C219.981 76.2122 220.433 76.6732 220.746 77.2616C221.07 77.8403 221.232 78.4974 221.232 79.233ZM219.849 78.9535C219.849 78.4435 219.736 78.007 219.511 77.6441C219.285 77.2714 218.976 76.9919 218.584 76.8056C218.201 76.6094 217.775 76.5113 217.304 76.5113C216.627 76.5113 216.049 76.7271 215.568 77.1586C215.097 77.5902 214.828 78.1885 214.759 78.9535H219.849ZM227.28 76.8203C227.515 76.3593 227.849 76.0013 228.28 75.7463C228.722 75.4913 229.256 75.3638 229.884 75.3638V76.7467H229.531C228.03 76.7467 227.28 77.5608 227.28 79.1888V83.5729H225.941V75.511H227.28V76.8203ZM241.728 79.233C241.728 79.488 241.713 79.7577 241.683 80.0421H235.24C235.289 80.8365 235.558 81.4593 236.049 81.9105C236.549 82.3518 237.152 82.5725 237.858 82.5725C238.437 82.5725 238.918 82.4401 239.3 82.1753C239.692 81.9007 239.967 81.5378 240.124 81.0866H241.566C241.35 81.8614 240.918 82.494 240.271 82.9844C239.624 83.465 238.82 83.7053 237.858 83.7053C237.093 83.7053 236.407 83.5336 235.799 83.1904C235.201 82.8471 234.73 82.3616 234.386 81.7339C234.043 81.0964 233.872 80.3609 233.872 79.5272C233.872 78.6935 234.038 77.9629 234.372 77.3352C234.705 76.7075 235.171 76.2269 235.769 75.8935C236.377 75.5502 237.074 75.3785 237.858 75.3785C238.623 75.3785 239.3 75.5453 239.889 75.8787C240.477 76.2122 240.928 76.6732 241.242 77.2616C241.566 77.8403 241.728 78.4974 241.728 79.233ZM240.345 78.9535C240.345 78.4435 240.232 78.007 240.006 77.6441C239.781 77.2714 239.472 76.9919 239.079 76.8056C238.697 76.6094 238.27 76.5113 237.8 76.5113C237.123 76.5113 236.544 76.7271 236.064 77.1586C235.593 77.5902 235.323 78.1885 235.254 78.9535H240.345ZM259.613 73.3189V74.4076H256.817V83.5729H255.479V74.4076H252.669V73.3189H259.613ZM271.559 79.233C271.559 79.488 271.544 79.7577 271.514 80.0421H265.071C265.12 80.8365 265.39 81.4593 265.88 81.9105C266.38 82.3518 266.983 82.5725 267.689 82.5725C268.268 82.5725 268.749 82.4401 269.131 82.1753C269.524 81.9007 269.798 81.5378 269.955 81.0866H271.397C271.181 81.8614 270.749 82.494 270.102 82.9844C269.455 83.465 268.651 83.7053 267.689 83.7053C266.924 83.7053 266.238 83.5336 265.63 83.1904C265.032 82.8471 264.561 82.3616 264.218 81.7339C263.874 81.0964 263.703 80.3609 263.703 79.5272C263.703 78.6935 263.869 77.9629 264.203 77.3352C264.536 76.7075 265.002 76.2269 265.6 75.8935C266.209 75.5502 266.905 75.3785 267.689 75.3785C268.454 75.3785 269.131 75.5453 269.72 75.8787C270.308 76.2122 270.759 76.6732 271.073 77.2616C271.397 77.8403 271.559 78.4974 271.559 79.233ZM270.176 78.9535C270.176 78.4435 270.063 78.007 269.837 77.6441C269.612 77.2714 269.303 76.9919 268.911 76.8056C268.528 76.6094 268.101 76.5113 267.631 76.5113C266.954 76.5113 266.375 76.7271 265.895 77.1586C265.424 77.5902 265.154 78.1885 265.086 78.9535H270.176ZM275.768 79.5272C275.768 78.6935 275.935 77.9678 276.268 77.3499C276.601 76.7222 277.062 76.2367 277.651 75.8935C278.249 75.5502 278.931 75.3785 279.696 75.3785C280.686 75.3785 281.5 75.6188 282.138 76.0994C282.785 76.58 283.212 77.2469 283.418 78.1002H281.976C281.839 77.6098 281.569 77.2224 281.167 76.938C280.775 76.6535 280.284 76.5113 279.696 76.5113C278.931 76.5113 278.313 76.7761 277.842 77.3058C277.371 77.8256 277.136 78.566 277.136 79.5272C277.136 80.4982 277.371 81.2485 277.842 81.7781C278.313 82.3077 278.931 82.5725 279.696 82.5725C280.284 82.5725 280.775 82.4352 281.167 82.1606C281.559 81.886 281.829 81.4936 281.976 80.9836H283.418C283.202 81.8075 282.771 82.4695 282.123 82.9697C281.476 83.4601 280.667 83.7053 279.696 83.7053C278.931 83.7053 278.249 83.5336 277.651 83.1904C277.062 82.8471 276.601 82.3616 276.268 81.7339C275.935 81.1062 275.768 80.3707 275.768 79.5272ZM292.148 75.3638C292.756 75.3638 293.305 75.4962 293.796 75.761C294.286 76.016 294.669 76.4035 294.943 76.9233C295.228 77.4431 295.37 78.0757 295.37 78.821V83.5729H294.046V79.0123C294.046 78.2081 293.845 77.5951 293.443 77.1734C293.04 76.7418 292.491 76.526 291.795 76.526C291.089 76.526 290.525 76.7467 290.103 77.1881C289.691 77.6294 289.485 78.2718 289.485 79.1153V83.5729H288.146V72.6863H289.485V76.6585C289.75 76.2465 290.113 75.9278 290.574 75.7022C291.045 75.4766 291.569 75.3638 292.148 75.3638ZM304.427 75.3638C305.408 75.3638 306.202 75.663 306.81 76.2612C307.418 76.8497 307.722 77.703 307.722 78.821V83.5729H306.398V79.0123C306.398 78.2081 306.197 77.5951 305.795 77.1734C305.393 76.7418 304.844 76.526 304.147 76.526C303.441 76.526 302.877 76.7467 302.456 77.1881C302.044 77.6294 301.838 78.2718 301.838 79.1153V83.5729H300.499V75.511H301.838V76.6585C302.103 76.2465 302.461 75.9278 302.912 75.7022C303.373 75.4766 303.878 75.3638 304.427 75.3638ZM316.368 83.7053C315.612 83.7053 314.926 83.5336 314.308 83.1904C313.7 82.8471 313.219 82.3616 312.866 81.7339C312.523 81.0964 312.351 80.3609 312.351 79.5272C312.351 78.7034 312.528 77.9776 312.881 77.3499C313.244 76.7124 313.734 76.2269 314.352 75.8935C314.97 75.5502 315.661 75.3785 316.426 75.3785C317.191 75.3785 317.883 75.5502 318.501 75.8935C319.119 76.2269 319.604 76.7075 319.957 77.3352C320.32 77.9629 320.501 78.6935 320.501 79.5272C320.501 80.3609 320.315 81.0964 319.942 81.7339C319.58 82.3616 319.084 82.8471 318.457 83.1904C317.829 83.5336 317.133 83.7053 316.368 83.7053ZM316.368 82.5284C316.848 82.5284 317.299 82.4156 317.721 82.19C318.143 81.9644 318.481 81.626 318.736 81.1749C319.001 80.7237 319.133 80.1745 319.133 79.5272C319.133 78.8799 319.006 78.3307 318.751 77.8795C318.496 77.4284 318.162 77.0949 317.75 76.8791C317.339 76.6535 316.892 76.5408 316.412 76.5408C315.921 76.5408 315.47 76.6535 315.058 76.8791C314.656 77.0949 314.332 77.4284 314.087 77.8795C313.842 78.3307 313.719 78.8799 313.719 79.5272C313.719 80.1843 313.837 80.7385 314.073 81.1896C314.318 81.6408 314.641 81.9791 315.044 82.2047C315.446 82.4205 315.887 82.5284 316.368 82.5284ZM326.543 72.6863V83.5729H325.204V72.6863H326.543ZM335.283 83.7053C334.528 83.7053 333.841 83.5336 333.223 83.1904C332.615 82.8471 332.135 82.3616 331.781 81.7339C331.438 81.0964 331.267 80.3609 331.267 79.5272C331.267 78.7034 331.443 77.9776 331.796 77.3499C332.159 76.7124 332.649 76.2269 333.267 75.8935C333.885 75.5502 334.577 75.3785 335.342 75.3785C336.107 75.3785 336.798 75.5502 337.416 75.8935C338.034 76.2269 338.519 76.7075 338.872 77.3352C339.235 77.9629 339.417 78.6935 339.417 79.5272C339.417 80.3609 339.23 81.0964 338.858 81.7339C338.495 82.3616 338 82.8471 337.372 83.1904C336.744 83.5336 336.048 83.7053 335.283 83.7053ZM335.283 82.5284C335.763 82.5284 336.215 82.4156 336.636 82.19C337.058 81.9644 337.396 81.626 337.651 81.1749C337.916 80.7237 338.049 80.1745 338.049 79.5272C338.049 78.8799 337.921 78.3307 337.666 77.8795C337.411 77.4284 337.078 77.0949 336.666 76.8791C336.254 76.6535 335.807 76.5408 335.327 76.5408C334.837 76.5408 334.385 76.6535 333.973 76.8791C333.571 77.0949 333.248 77.4284 333.002 77.8795C332.757 78.3307 332.635 78.8799 332.635 79.5272C332.635 80.1843 332.752 80.7385 332.988 81.1896C333.233 81.6408 333.557 81.9791 333.959 82.2047C334.361 82.4205 334.802 82.5284 335.283 82.5284ZM347.444 75.3785C348.14 75.3785 348.748 75.5306 349.268 75.8346C349.798 76.1386 350.19 76.5211 350.445 76.9821V75.511H351.799V83.7494C351.799 84.485 351.642 85.1372 351.328 85.706C351.014 86.2847 350.563 86.7359 349.974 87.0595C349.396 87.3832 348.719 87.545 347.944 87.545C346.885 87.545 346.002 87.2949 345.296 86.7947C344.59 86.2945 344.173 85.6129 344.046 84.7498H345.37C345.517 85.2402 345.821 85.6325 346.282 85.9267C346.743 86.2308 347.297 86.3828 347.944 86.3828C348.68 86.3828 349.278 86.1523 349.739 85.6913C350.21 85.2304 350.445 84.5831 350.445 83.7494V82.0576C350.18 82.5284 349.788 82.9207 349.268 83.2345C348.748 83.5484 348.14 83.7053 347.444 83.7053C346.728 83.7053 346.076 83.5287 345.487 83.1757C344.909 82.8226 344.453 82.3273 344.119 81.6898C343.786 81.0523 343.619 80.3265 343.619 79.5125C343.619 78.6886 343.786 77.9678 344.119 77.3499C344.453 76.7222 344.909 76.2367 345.487 75.8935C346.076 75.5502 346.728 75.3785 347.444 75.3785ZM350.445 79.5272C350.445 78.9191 350.323 78.3895 350.077 77.9384C349.832 77.4872 349.499 77.1439 349.077 76.9085C348.665 76.6634 348.209 76.5408 347.709 76.5408C347.209 76.5408 346.753 76.6585 346.341 76.8938C345.929 77.1292 345.6 77.4725 345.355 77.9236C345.11 78.3748 344.987 78.9044 344.987 79.5125C344.987 80.1304 345.11 80.6698 345.355 81.1308C345.6 81.5819 345.929 81.9301 346.341 82.1753C346.753 82.4107 347.209 82.5284 347.709 82.5284C348.209 82.5284 348.665 82.4107 349.077 82.1753C349.499 81.9301 349.832 81.5819 350.077 81.1308C350.323 80.6698 350.445 80.1353 350.445 79.5272ZM363.947 75.511L359.092 87.3685H357.71L359.298 83.4846L356.047 75.511H357.533L360.063 82.0429L362.564 75.511H363.947ZM385.501 73.3925V83.5729H384.162V75.9817L380.778 83.5729H379.837L376.438 75.967V83.5729H375.1V73.3925H376.541L380.308 81.8075L384.074 73.3925H385.501ZM398.069 79.233C398.069 79.488 398.055 79.7577 398.025 80.0421H391.581C391.63 80.8365 391.9 81.4593 392.391 81.9105C392.891 82.3518 393.494 82.5725 394.2 82.5725C394.779 82.5725 395.259 82.4401 395.642 82.1753C396.034 81.9007 396.309 81.5378 396.466 81.0866H397.907C397.692 81.8614 397.26 82.494 396.613 82.9844C395.965 83.465 395.161 83.7053 394.2 83.7053C393.435 83.7053 392.749 83.5336 392.14 83.1904C391.542 82.8471 391.071 82.3616 390.728 81.7339C390.385 81.0964 390.213 80.3609 390.213 79.5272C390.213 78.6935 390.38 77.9629 390.713 77.3352C391.047 76.7075 391.513 76.2269 392.111 75.8935C392.719 75.5502 393.415 75.3785 394.2 75.3785C394.965 75.3785 395.642 75.5453 396.23 75.8787C396.819 76.2122 397.27 76.6732 397.584 77.2616C397.907 77.8403 398.069 78.4974 398.069 79.233ZM396.686 78.9535C396.686 78.4435 396.574 78.007 396.348 77.6441C396.122 77.2714 395.813 76.9919 395.421 76.8056C395.039 76.6094 394.612 76.5113 394.141 76.5113C393.465 76.5113 392.886 76.7271 392.405 77.1586C391.935 77.5902 391.665 78.1885 391.596 78.9535H396.686ZM410.134 79.233C410.134 79.488 410.12 79.7577 410.09 80.0421H403.647C403.696 80.8365 403.965 81.4593 404.456 81.9105C404.956 82.3518 405.559 82.5725 406.265 82.5725C406.844 82.5725 407.324 82.4401 407.707 82.1753C408.099 81.9007 408.374 81.5378 408.531 81.0866H409.973C409.757 81.8614 409.325 82.494 408.678 82.9844C408.031 83.465 407.226 83.7053 406.265 83.7053C405.5 83.7053 404.814 83.5336 404.206 83.1904C403.607 82.8471 403.137 82.3616 402.793 81.7339C402.45 81.0964 402.278 80.3609 402.278 79.5272C402.278 78.6935 402.445 77.9629 402.779 77.3352C403.112 76.7075 403.578 76.2269 404.176 75.8935C404.784 75.5502 405.481 75.3785 406.265 75.3785C407.03 75.3785 407.707 75.5453 408.295 75.8787C408.884 76.2122 409.335 76.6732 409.649 77.2616C409.973 77.8403 410.134 78.4974 410.134 79.233ZM408.752 78.9535C408.752 78.4435 408.639 78.007 408.413 77.6441C408.188 77.2714 407.879 76.9919 407.486 76.8056C407.104 76.6094 406.677 76.5113 406.206 76.5113C405.53 76.5113 404.951 76.7271 404.47 77.1586C404 77.5902 403.73 78.1885 403.661 78.9535H408.752ZM416.477 76.6143V81.3661C416.477 81.7585 416.56 82.038 416.727 82.2047C416.894 82.3616 417.183 82.4401 417.595 82.4401H418.581V83.5729H417.374C416.629 83.5729 416.07 83.4012 415.697 83.058C415.324 82.7147 415.138 82.1508 415.138 81.3661V76.6143H414.094V75.511H415.138V73.4808H416.477V75.511H418.581V76.6143H416.477ZM425.999 83.7053C425.381 83.7053 424.827 83.6023 424.337 83.3963C423.846 83.1806 423.459 82.8863 423.174 82.5136C422.89 82.1311 422.733 81.6947 422.704 81.2043H424.086C424.126 81.6064 424.312 81.935 424.645 82.19C424.989 82.445 425.435 82.5725 425.984 82.5725C426.494 82.5725 426.896 82.4597 427.191 82.2341C427.485 82.0085 427.632 81.7241 427.632 81.3809C427.632 81.0278 427.475 80.7679 427.161 80.6011C426.847 80.4246 426.362 80.253 425.705 80.0862C425.106 79.9293 424.616 79.7724 424.234 79.6155C423.861 79.4487 423.537 79.2085 423.263 78.8946C422.998 78.571 422.865 78.1492 422.865 77.6294C422.865 77.2175 422.988 76.8399 423.233 76.4966C423.478 76.1534 423.827 75.8836 424.278 75.6875C424.729 75.4815 425.244 75.3785 425.822 75.3785C426.715 75.3785 427.436 75.6041 427.985 76.0553C428.534 76.5064 428.828 77.1243 428.868 77.9089H427.529C427.5 77.4872 427.328 77.1488 427.014 76.8938C426.71 76.6388 426.298 76.5113 425.778 76.5113C425.298 76.5113 424.915 76.6143 424.631 76.8203C424.346 77.0262 424.204 77.296 424.204 77.6294C424.204 77.8942 424.288 78.1149 424.454 78.2914C424.631 78.4582 424.847 78.5955 425.102 78.7034C425.366 78.8014 425.729 78.9142 426.19 79.0417C426.769 79.1986 427.24 79.3556 427.603 79.5125C427.965 79.6596 428.274 79.8852 428.529 80.1892C428.794 80.4933 428.931 80.8905 428.941 81.3809C428.941 81.8222 428.819 82.2194 428.573 82.5725C428.328 82.9256 427.98 83.2051 427.529 83.411C427.088 83.6072 426.578 83.7053 425.999 83.7053ZM449.112 73.3189L445.243 83.5729H443.698L439.829 73.3189H441.256L444.478 82.1606L447.699 73.3189H449.112ZM454.213 74.2016C453.958 74.2016 453.743 74.1134 453.566 73.9368C453.39 73.7603 453.301 73.5445 453.301 73.2895C453.301 73.0345 453.39 72.8187 453.566 72.6422C453.743 72.4657 453.958 72.3774 454.213 72.3774C454.459 72.3774 454.665 72.4657 454.831 72.6422C455.008 72.8187 455.096 73.0345 455.096 73.2895C455.096 73.5445 455.008 73.7603 454.831 73.9368C454.665 74.1134 454.459 74.2016 454.213 74.2016ZM454.861 75.511V83.5729H453.522V75.511H454.861ZM462.939 83.7053C462.321 83.7053 461.767 83.6023 461.276 83.3963C460.786 83.1806 460.399 82.8863 460.114 82.5136C459.83 82.1311 459.673 81.6947 459.643 81.2043H461.026C461.065 81.6064 461.252 81.935 461.585 82.19C461.929 82.445 462.375 82.5725 462.924 82.5725C463.434 82.5725 463.836 82.4597 464.13 82.2341C464.425 82.0085 464.572 81.7241 464.572 81.3809C464.572 81.0278 464.415 80.7679 464.101 80.6011C463.787 80.4246 463.302 80.253 462.644 80.0862C462.046 79.9293 461.556 79.7724 461.173 79.6155C460.801 79.4487 460.477 79.2085 460.202 78.8946C459.938 78.571 459.805 78.1492 459.805 77.6294C459.805 77.2175 459.928 76.8399 460.173 76.4966C460.418 76.1534 460.766 75.8836 461.217 75.6875C461.669 75.4815 462.184 75.3785 462.762 75.3785C463.655 75.3785 464.376 75.6041 464.925 76.0553C465.474 76.5064 465.768 77.1243 465.807 77.9089H464.469C464.439 77.4872 464.268 77.1488 463.954 76.8938C463.65 76.6388 463.238 76.5113 462.718 76.5113C462.237 76.5113 461.855 76.6143 461.571 76.8203C461.286 77.0262 461.144 77.296 461.144 77.6294C461.144 77.8942 461.227 78.1149 461.394 78.2914C461.571 78.4582 461.786 78.5955 462.041 78.7034C462.306 78.8014 462.669 78.9142 463.13 79.0417C463.709 79.1986 464.179 79.3556 464.542 79.5125C464.905 79.6596 465.214 79.8852 465.469 80.1892C465.734 80.4933 465.871 80.8905 465.881 81.3809C465.881 81.8222 465.758 82.2194 465.513 82.5725C465.268 82.9256 464.92 83.2051 464.469 83.411C464.027 83.6072 463.517 83.7053 462.939 83.7053ZM471.405 74.2016C471.15 74.2016 470.934 74.1134 470.757 73.9368C470.581 73.7603 470.492 73.5445 470.492 73.2895C470.492 73.0345 470.581 72.8187 470.757 72.6422C470.934 72.4657 471.15 72.3774 471.405 72.3774C471.65 72.3774 471.856 72.4657 472.022 72.6422C472.199 72.8187 472.287 73.0345 472.287 73.2895C472.287 73.5445 472.199 73.7603 472.022 73.9368C471.856 74.1134 471.65 74.2016 471.405 74.2016ZM472.052 75.511V83.5729H470.713V75.511H472.052ZM480.792 83.7053C480.037 83.7053 479.35 83.5336 478.732 83.1904C478.124 82.8471 477.644 82.3616 477.291 81.7339C476.947 81.0964 476.776 80.3609 476.776 79.5272C476.776 78.7034 476.952 77.9776 477.305 77.3499C477.668 76.7124 478.159 76.2269 478.776 75.8935C479.394 75.5502 480.086 75.3785 480.851 75.3785C481.616 75.3785 482.307 75.5502 482.925 75.8935C483.543 76.2269 484.029 76.7075 484.382 77.3352C484.744 77.9629 484.926 78.6935 484.926 79.5272C484.926 80.3609 484.74 81.0964 484.367 81.7339C484.004 82.3616 483.509 82.8471 482.881 83.1904C482.253 83.5336 481.557 83.7053 480.792 83.7053ZM480.792 82.5284C481.273 82.5284 481.724 82.4156 482.145 82.19C482.567 81.9644 482.906 81.626 483.161 81.1749C483.425 80.7237 483.558 80.1745 483.558 79.5272C483.558 78.8799 483.43 78.3307 483.175 77.8795C482.92 77.4284 482.587 77.0949 482.175 76.8791C481.763 76.6535 481.317 76.5408 480.836 76.5408C480.346 76.5408 479.895 76.6535 479.483 76.8791C479.081 77.0949 478.757 77.4284 478.512 77.8795C478.266 78.3307 478.144 78.8799 478.144 79.5272C478.144 80.1843 478.262 80.7385 478.497 81.1896C478.742 81.6408 479.066 81.9791 479.468 82.2047C479.87 82.4205 480.311 82.5284 480.792 82.5284ZM493.556 75.3638C494.537 75.3638 495.332 75.663 495.94 76.2612C496.548 76.8497 496.852 77.703 496.852 78.821V83.5729H495.528V79.0123C495.528 78.2081 495.327 77.5951 494.925 77.1734C494.522 76.7418 493.973 76.526 493.277 76.526C492.571 76.526 492.007 76.7467 491.585 77.1881C491.173 77.6294 490.967 78.2718 490.967 79.1153V83.5729H489.628V75.511H490.967V76.6585C491.232 76.2465 491.59 75.9278 492.041 75.7022C492.502 75.4766 493.007 75.3638 493.556 75.3638Z" fill="#5C5C5C"/>
<path d="M507.731 79.7571C507.418 79.7571 507.165 80.0104 507.165 80.3229C507.165 80.6353 507.418 80.8886 507.731 80.8886V79.7571ZM543.114 80.3229C543.114 78.6564 541.763 77.3055 540.096 77.3055C538.43 77.3055 537.079 78.6564 537.079 80.3229C537.079 81.9893 538.43 83.3402 540.096 83.3402C541.763 83.3402 543.114 81.9893 543.114 80.3229ZM507.731 80.8886H540.096V79.7571H507.731V80.8886Z" fill="#444444"/>
<path d="M173.288 80.8886C173.601 80.8886 173.854 80.6353 173.854 80.3229C173.854 80.0104 173.601 79.7571 173.288 79.7571L173.288 80.8886ZM137.905 80.3229C137.905 81.9893 139.256 83.3402 140.923 83.3402C142.589 83.3402 143.94 81.9893 143.94 80.3229C143.94 78.6564 142.589 77.3055 140.923 77.3055C139.256 77.3055 137.905 78.6564 137.905 80.3229ZM173.288 79.7571L140.923 79.7571L140.923 80.8886L173.288 80.8886L173.288 79.7571Z" fill="#444444"/>
</svg>
